<?xml version="1.0" encoding="utf-8" ?>
<svg xmlns="http://www.w3.org/2000/svg" xmlns:xlink="http://www.w3.org/1999/xlink" width="1024" height="1024">
	<path fill="#FADD7B" transform="scale(2 2)" d="M235.347 147.256C239.62 148.703 243.72 150.684 247.969 152.229C245.309 152.376 243.173 150.626 240.63 150.24L240.629 150.605C241.728 151.595 243.993 152.316 244.71 153.432L244.525 153.646C241.148 152.341 238.076 149.591 235.347 147.256Z"/>
	<path fill="#1F3F7A" transform="scale(2 2)" d="M377.094 184.797C380.065 185.384 382.459 192.445 389.094 188.008C390.132 187.314 392.266 185.105 393.15 184.797C393.127 189.518 393.077 194.242 393.15 198.963C387.805 198.865 382.442 198.994 377.094 198.963C377.069 194.238 377.266 189.522 377.094 184.797Z"/>
	<path fill="#2E6DB9" transform="scale(2 2)" d="M116.228 180.418C116.441 170.7 132.152 171.128 131.74 180.418C131.744 181.698 131.768 182.981 131.74 184.261L131.74 185.429C125.886 186.4 128.159 193.039 117.686 186.745L117.083 186.377L116.228 184.261C116.265 182.979 116.247 181.7 116.228 180.418Z"/>
	<path fill="#2E6DB9" transform="scale(2 2)" d="M377.094 179.278C379.449 171.609 386.807 171.576 392.101 176.161C392.509 177.195 392.908 178.189 393.15 179.278C393.133 181.116 393.088 182.96 393.15 184.797L393.15 184.797C392.266 185.105 390.132 187.314 389.094 188.008C382.459 192.445 380.065 185.384 377.094 184.797L377.094 184.797C377.295 183.014 377.284 181.062 377.094 179.278Z"/>
	<path fill="#1F3F7A" transform="scale(2 2)" d="M375.262 250.953L375.586 250.297C380.694 249.199 388.622 250.74 394.021 250.048C393.999 252.76 393.838 255.571 394.021 258.272C393.546 265.264 378.998 262.886 376.349 261.311C374.583 258.655 375.183 254.022 375.262 250.953Z"/>
	<path fill="#1F3F7A" transform="scale(2 2)" d="M113.776 250.048C117.124 250.096 132.27 249.579 134.1 250.08C134.295 250.851 134.413 251.582 134.496 252.372C134.616 258.227 134.661 261.631 127.85 261.858C115.073 262.284 113.182 263 113.776 250.048Z"/>
	<path fill="#1F3F7A" transform="scale(2 2)" d="M273.363 92.6289C275.692 92.7708 278.052 92.6623 280.386 92.6289C280.425 97.7833 279.803 106.033 280.649 110.809C282.188 119.497 293.289 119.003 295.061 111.191C295.833 107.789 295.269 96.9335 295.258 92.6289C297.595 92.7344 299.912 92.6871 302.248 92.6289L302.248 98.8715C302.279 105.792 303.63 114.468 298.128 119.72C292.477 125.114 282.409 125.409 277.072 119.381C272.219 113.901 273.009 100.149 273.363 92.6289Z"/>
	<path fill="#FADD7B" transform="scale(2 2)" d="M369.604 359.757C378.018 359.335 393.876 359.119 402.041 359.992C409.794 360.82 411.443 370.911 402.625 372.728C396.759 372.806 370.814 373.398 367.165 371.723C362.095 369.395 363.321 361.773 369.604 359.757Z"/>
	<path fill="#509CE7" transform="scale(2 2)" d="M116.228 184.261C111.095 183.579 105.512 184.396 100.356 184.711L70.0805 186.349C64.9901 186.637 53.7618 188.957 49.4831 185.54C46.8294 183.42 46.291 178.906 48.4966 176.292C52.3323 171.747 59.1191 174.148 64.1178 174.782C78.2506 176.576 92.2565 179.17 106.379 180.999C109.802 181.442 115.651 183.978 116.228 180.418C116.247 181.7 116.265 182.979 116.228 184.261Z"/>
	<path fill="#FADD7B" transform="scale(2 2)" d="M360.97 387.03C362.13 386.723 363.583 386.646 364.676 387.224C366.442 388.157 388.737 409.48 389.71 413.485C390.713 417.609 387.551 421.382 383.647 422.289C378.343 421.37 360.253 402.819 355.917 397.022C352.274 392.151 355.605 387.566 360.97 387.03Z"/>
	<path fill="#1F3F7A" transform="scale(2 2)" d="M256.04 91.8662C260.884 91.6331 265.969 93.1689 269.589 96.4708C268.146 97.9904 266.911 99.7602 265.575 101.382C260.303 97.4644 250.141 96.9971 247.03 103.871C243.129 112.492 252.85 120.174 260.747 116.514C267.44 113.411 263.27 112.622 256.04 112.705L256.04 106.038L260.437 106.038L269.977 106.038C269.954 110.04 269.912 114.042 269.977 118.044C264.465 125.645 251.75 125.961 244.807 120.267C232.629 110.28 239.352 93.4654 256.04 91.8662Z"/>
	<path fill="#509CE7" transform="scale(2 2)" d="M131.74 180.418C131.873 180.936 131.967 181.926 132.368 182.253C144.656 179.454 157.4 178.226 169.88 176.465L183.982 174.497C190.914 173.549 199.699 171.131 201.736 180.418C199.596 189.948 189.433 186.845 181.546 186.466L153.133 184.949C146.091 184.523 138.782 183.738 131.74 184.261C131.768 182.981 131.744 181.698 131.74 180.418Z"/>
	<path fill="#FADD7B" transform="scale(2 2)" d="M109.961 358.501C115.626 358.209 121.446 358.524 127.13 358.526C132.589 358.529 145.278 356.289 147.588 363.132C148.998 367.307 146.727 371.461 142.507 372.728C135.178 373.916 127.095 373.25 119.647 373.248C114.043 373.246 105.554 374.702 104.048 367.139C103.202 362.889 105.802 359.343 109.961 358.501Z"/>
	<path fill="#FADD7B" transform="scale(2 2)" d="M148.973 387.03C154.015 386.71 156.509 390.062 157.589 394.665C156.293 399.972 135.757 420.769 130.409 422.289C124.939 422.655 119.096 417.179 122.404 411.658C125.224 406.95 131.614 402.331 135.612 398.357C139.405 394.587 143.493 388.268 148.973 387.03Z"/>
	<path fill="#509CE7" transform="scale(2 2)" d="M313.381 174.638C329.027 170.78 359.965 180.861 377.094 179.278C377.284 181.062 377.295 183.014 377.094 184.797C373.654 184.18 361.694 185.442 357.67 185.662C345.792 186.31 329.867 187.212 317.992 186.736C310.255 186.427 307.812 179.554 313.381 174.638Z"/>
	<path fill="#509CE7" transform="scale(2 2)" d="M393.15 179.278C398.681 179.317 404.241 178.381 409.745 177.884L441.454 175.124C446.442 174.712 454.741 172.175 458.804 176.274C463.353 180.863 459.692 187.442 452.51 187.121L412.338 185.686L399.62 185.031C397.509 184.921 395.258 184.658 393.15 184.797C393.088 182.96 393.133 181.116 393.15 179.278Z"/>
	<path fill="#1F3F7A" transform="scale(2 2)" d="M174.34 92.6289C181.072 92.6453 192.495 90.8523 197.343 95.4324C204.029 101.749 201.519 108.83 195.822 114.501C198.129 118.052 203.775 123.375 199.119 123.26C192.007 123.438 193.2 120.945 188.912 116.299L188.681 116.053C186.157 115.735 183.781 115.844 181.249 116.053C181.34 118.468 181.423 120.844 181.249 123.26L174.34 123.26C174.343 113.06 174.126 102.822 174.34 92.6289ZM181.249 98.8715L181.249 108.751C185.138 109.308 189.438 110.175 192.882 107.749C200.467 99.4533 186.204 98.7801 181.249 98.8715Z"/>
	<path fill="#1F3F7A" transform="scale(2 2)" d="M217.957 92.6289C237.59 86.1986 245.414 122.12 222.772 123.26C199.267 127.772 196.851 92.4985 217.957 92.6289ZM217.957 98.8715C205.239 101.843 209.426 119.439 222.772 116.989C234.19 112.648 230.713 97.6865 217.957 98.8715Z"/>
	<path fill="#1F3F7A" transform="scale(2 2)" d="M367.462 92.6289C380.209 93.3554 386.791 89.2428 396.762 98.8715C403.128 114.263 395.543 124.546 378.628 123.26C375.96 123.71 370.244 123.453 367.462 123.26L367.458 103.625C367.446 99.961 367.284 96.2898 367.462 92.6289ZM374.471 98.8715L374.471 116.053C377.127 116.383 379.314 116.547 381.957 116.053C384.749 112.729 388.927 107.17 392.101 104.749C387.006 97.0517 382.127 100.239 374.471 98.8715Z"/>
	<path fill="#F4BF18" transform="scale(2 2)" d="M392.101 104.749C394.559 111.942 388.437 116.464 381.957 116.053C384.749 112.729 388.927 107.17 392.101 104.749Z"/>
	<path fill="#1F3F7A" transform="scale(2 2)" d="M147.088 92.6289L161.625 92.6091C164.55 92.5819 167.609 92.2756 170.508 92.6289L170.508 98.8715C165.048 99.1127 159.477 98.8474 154.003 98.8715C153.958 100.828 153.996 102.792 154.003 104.749L168.253 104.749C168.336 106.856 168.343 108.931 168.253 111.038C165.826 111.166 163.369 111.064 160.938 111.038L154.003 111.038C153.925 113.022 153.97 115.004 154.003 116.989C159.504 116.975 165.007 116.927 170.508 116.989C170.794 119.176 170.74 121.079 170.508 123.26L138.995 123.26C138.046 121.157 137.061 119.073 136.073 116.989C130.95 116.777 125.751 116.971 120.621 116.989C119.69 119.105 118.758 121.206 117.693 123.26C115.122 123.168 112.533 123.245 109.961 123.26C112.885 116.189 120.902 99.0284 125.024 92.6289C126.074 92.5848 127.132 92.6208 128.182 92.6289L131.74 92.6289C137.109 102.137 141.918 113.308 147.088 123.26C146.68 113.115 147.082 102.791 147.088 92.6289ZM128.182 101.382C126.382 104.366 125.146 107.743 124.039 111.038C125.413 110.999 126.814 110.892 128.182 111.038L132.976 111.038C132.2 108.915 129.909 102.548 128.182 101.382Z"/>
	<path fill="#1F3F7A" transform="scale(2 2)" d="M315.51 92.6289L321.547 92.6289C326.197 101.624 331.754 115.374 337.3 123.26C337.474 119.851 337.324 116.366 337.317 112.949L337.3 92.6289C347.166 92.8841 365.945 89.6481 364.682 105.668C364.359 109.767 361.751 111.986 358.877 114.501C360.236 115.906 361.502 117.322 362.704 118.864C363.736 120.295 364.67 121.714 365.52 123.26C362.865 123.371 360.14 123.475 357.49 123.26C355.194 120.752 353.209 117.878 350.977 115.289C348.747 115.13 346.632 115.127 344.398 115.289C344.198 117.918 344.363 120.622 344.398 123.26C339.124 123.496 333.735 123.329 328.455 123.26C327.764 121.089 327.003 118.958 325.843 116.989C321.023 117.388 316.097 117.155 311.267 116.989C310.365 119.152 309.5 121.329 308.153 123.26C305.789 123.437 303.377 123.301 301.008 123.26C306.131 113.184 310.412 102.696 315.51 92.6289ZM344.398 98.8715L344.398 108.751C347.803 108.776 353.738 109.542 356.62 107.749C362.772 98.195 349.716 99.4576 344.398 98.8715ZM319.176 101.868C316.954 104.672 315.489 107.692 314.234 111.038C315.883 111.008 317.527 110.974 319.176 111.038C320.52 111.032 321.891 110.975 323.231 111.038C322.564 109.432 319.977 102.837 319.176 101.868Z"/>
	<path fill="#1F3F7A" transform="scale(2 2)" d="M367.462 211.556L367.451 231.706C367.463 233.412 368.381 238.575 367.462 239.798L331.485 245.301C325.116 246.314 318.551 247.066 312.341 248.84C312.265 244.989 311.586 241.114 310.641 237.387C309.191 231.958 307.31 226.988 304.528 222.095C308.891 220.719 316.051 220.098 320.811 219.336L357.49 213.435C360.826 212.901 364.16 212.271 367.462 211.556Z"/>
	<path fill="#2E6DB9" transform="scale(2 2)" d="M304.528 222.095C308.891 220.719 316.051 220.098 320.811 219.336L357.49 213.435C358.345 218.633 360.256 220.117 356.555 225.589C350.336 234.784 322.189 232.901 310.641 237.387C309.191 231.958 307.31 226.988 304.528 222.095Z"/>
	<path fill="#2E6DB9" transform="scale(2 2)" d="M377.094 198.963C382.442 198.994 387.805 198.865 393.15 198.963C406.864 199.896 402.628 208.643 402.627 220.634L402.624 235.015C402.619 243.765 404.667 248.937 394.021 250.048C394.146 252.658 394.546 255.711 394.021 258.272C393.838 255.571 393.999 252.76 394.021 250.048C388.622 250.74 380.694 249.199 375.586 250.297L375.262 250.953C375.116 249.141 370.628 249.011 369.158 247.472C366.941 245.151 368.392 241.196 367.462 239.798C368.381 238.575 367.463 233.412 367.451 231.706L367.462 211.556C367.358 202.419 366.98 198.902 377.094 198.963Z"/>
	<path fill="#1F3F7A" transform="scale(2 2)" d="M142.507 210.356C147.851 211.192 153.571 211.706 158.698 213.435C166.145 213.542 174.581 215.696 182.031 216.971L200.338 220.208C203.451 220.786 206.677 221.25 209.728 222.095C207.203 226.551 204.827 231.129 203.925 236.22C202.408 240.395 201.862 244.421 201.736 248.84C197.67 248.71 193.395 247.591 189.374 246.884L163.075 242.348C156.414 241.217 149.26 239.465 142.507 239.798C141.613 234.445 142.353 216.244 142.507 210.356Z"/>
	<path fill="#2E6DB9" transform="scale(2 2)" d="M158.698 213.435C166.145 213.542 174.581 215.696 182.031 216.971L200.338 220.208C203.451 220.786 206.677 221.25 209.728 222.095C207.203 226.551 204.827 231.129 203.925 236.22C196.809 234.815 186.461 234.137 178.633 232.899C161.407 230.175 158.355 232.275 158.698 213.435Z"/>
	<path fill="#2E6DB9" transform="scale(2 2)" d="M117.083 186.377L117.686 186.745C128.159 193.039 125.886 186.4 131.74 185.429L131.74 198.963C140.141 198.48 142.941 202.158 142.507 210.356C142.353 216.244 141.613 234.445 142.507 239.798C141.558 242.71 143.248 245.7 140.049 247.741C136.262 250.156 134.707 247.919 134.496 252.372C134.413 251.582 134.295 250.851 134.1 250.08C132.27 249.579 117.124 250.096 113.776 250.048C103.323 248.807 105.769 237.805 105.762 229.983C105.756 223.781 105.668 217.561 105.803 211.36C106.001 202.208 107.21 198.604 117.083 198.963C117.053 196.263 117.06 193.566 117.083 190.867C117.111 189.369 117.106 187.875 117.083 186.377Z"/>
	<path fill="#1F3F7A" transform="scale(2 2)" d="M117.083 186.377L117.686 186.745C128.159 193.039 125.886 186.4 131.74 185.429L131.74 198.963L117.083 198.963C117.225 196.307 117.487 193.508 117.083 190.867C117.111 189.369 117.106 187.875 117.083 186.377Z"/>
	<path fill="#F4BF18" transform="scale(2 2)" d="M209.728 222.095C234.801 187.843 279.439 186.65 304.528 222.095C307.31 226.988 309.191 231.958 310.641 237.387C311.586 241.114 312.265 244.989 312.341 248.84C312.333 255.049 311.481 260.939 310.641 267.062C302.718 264.937 294.899 262.1 287.079 259.613L256.04 250.048C239.317 255.732 220.036 260.6 203.925 267.062C202.155 260.925 201.735 255.182 201.736 248.84C201.862 244.421 202.408 240.395 203.925 236.22C204.827 231.129 207.203 226.551 209.728 222.095ZM269.589 208.549C257.647 216.656 275.367 220.563 279.479 222.998C295.145 232.271 288.935 249.804 301.008 247.664C312.35 238.503 287.088 207.421 269.589 208.549Z"/>
	<path fill="#F4BF18" transform="scale(2 2)" d="M412.279 42.2471L463.778 42.2471C463.838 86.0847 452.848 122.876 421.34 154.404C416.74 159.007 397.646 175.796 392.101 176.161C386.807 171.576 379.449 171.609 377.094 179.278C359.965 180.861 329.027 170.78 313.381 174.638C296.75 175.696 257.362 162.095 244.525 153.646L244.71 153.432C243.993 152.316 241.728 151.595 240.629 150.605L240.63 150.24C243.173 150.626 245.309 152.376 247.969 152.229C258.442 158.055 281.724 160.748 293.944 160.547C328.796 159.972 354.886 147.845 378.628 123.26C395.543 124.546 403.128 114.263 396.762 98.8715C398.273 94.8398 400.873 91.3509 402.58 87.4127C408.143 74.5755 413.227 56.2912 412.279 42.2471Z"/>
	<path fill="#1F3F7A" transform="scale(2 2)" d="M256.04 250.048L287.079 259.613C294.899 262.1 302.718 264.937 310.641 267.062C319.949 271.262 331.953 271.74 340.631 276.761C346.895 280.385 345.383 289.063 345.376 295.12L345.355 311.494C345.355 324.625 345.826 337.996 345.279 351.087C343.369 396.752 309.57 430.01 274.806 455.36C270.69 458.361 262.404 464.52 257.753 465.672C250.126 467.562 226.384 447.388 220.645 442.645C184.183 412.514 167.175 385.306 167.185 338.624L167.181 293.792C167.179 287.588 165.458 279.941 172.371 276.923C177.518 274.677 198.107 268.265 203.925 267.062C220.036 260.6 239.317 255.732 256.04 250.048Z"/>
	<path fill="#FADD7B" transform="scale(2 2)" d="M256.04 268.547C259.493 269.472 262.796 270.889 266.208 271.948L297.034 281.574C307.137 284.756 317.535 287.225 327.477 290.893L327.476 329.954C327.476 337.987 327.973 346.376 327.138 354.358C323.203 391.988 294.97 419.877 265.443 440.377C262.403 442.488 259.353 444.844 256.04 446.495C256.123 441.647 255.798 396.856 256.04 396.373C264.499 395.898 277.1 387.211 282.979 381.344C293.157 371.188 294.266 361.034 294.236 347.327L294.285 332.747C294.318 317.131 285.041 317.183 272.667 317.192L256.04 317.209L256.034 285.075C256.036 279.568 256.193 274.051 256.04 268.547Z"/>
	<path fill="#F4BF18" transform="scale(2 2)" d="M256.04 268.547C256.193 274.051 256.036 279.568 256.034 285.075L256.04 317.209L272.667 317.192C285.041 317.183 294.318 317.131 294.285 332.747L294.236 347.327C294.266 361.034 293.157 371.188 282.979 381.344C277.1 387.211 264.499 395.898 256.04 396.373C255.798 396.856 256.123 441.647 256.04 446.495C252.454 444.664 249.055 442.133 245.741 439.854C217.443 420.391 189.269 394.711 184.883 358.705C183.767 349.539 184.032 340.335 184.032 331.121L184.043 290.893C189.105 289.876 194.028 288.186 198.945 286.635L243.161 272.812C247.416 271.463 251.931 270.283 256.04 268.547Z"/>
	<path fill="#1F3F7A" transform="scale(2 2)" d="M256.04 317.209L272.667 317.192C285.041 317.183 294.318 317.131 294.285 332.747L294.236 347.327C294.266 361.034 293.157 371.188 282.979 381.344C277.1 387.211 264.499 395.898 256.04 396.373C236.704 395.166 220.345 379.98 218.26 360.593C217.788 356.203 217.965 351.725 217.98 347.315L217.881 332.047C217.843 326.543 219.291 320.134 225.195 318.205C230.716 316.402 249.246 317.201 256.04 317.209Z"/>
	<path fill="#509CE7" transform="scale(2 2)" d="M277.599 328.977L287.484 338.64C285.275 341.541 282.297 344.136 279.68 346.673L266.433 359.526C260.287 365.592 254.506 372.485 247.969 378.093C243.959 373.213 238.914 368.975 234.451 364.496C230.906 361.172 227.535 357.649 224.143 354.17C227.164 350.555 230.934 346.972 234.451 343.835L247.969 357.396L267.123 338.914C270.558 335.586 273.904 332.014 277.599 328.977Z"/>
</svg>
