<?xml version="1.0" encoding="utf-8" ?>
<svg xmlns="http://www.w3.org/2000/svg" xmlns:xlink="http://www.w3.org/1999/xlink" width="1024" height="1024">
	<path fill="#FCBE42" transform="scale(2 2)" d="M267.167 66.5443C268.834 65.5378 270.518 64.571 272.348 63.8871C266.166 96.92 266.264 128.336 279.968 159.484C289.954 182.179 300.979 196.042 322.956 206.803C326.37 201.756 329.128 196.575 331.052 190.773C334.378 180.797 334.31 173.466 334.25 163.243C336.953 167.985 340.006 172.473 342.854 177.121C359.586 204.431 374.538 231.902 382.999 262.9C400.857 328.322 390.054 391.926 326.98 427.871C315.343 434.503 302.151 439.836 289.017 442.575C286.246 443.997 282.434 444.323 279.399 445.014C255.258 450.513 227.444 447.273 204.771 437.16C173.288 427.236 144.24 399.689 131.108 369.646C106.059 312.341 128.282 244.261 149.811 189.459C154.962 203.925 163.531 249.137 186.814 238.631C200.429 232.487 194.299 216.069 192.708 205.081C184.478 148.271 214.806 90.0194 267.167 66.5443Z"/>
	<path fill="#FEE373" transform="scale(2 2)" d="M234.036 230.519C237.398 232.328 240.385 235.202 243.374 237.564C276.216 263.523 292.184 279.133 291.532 322.154C295.836 317.849 300.262 313.713 303.932 308.828C306.506 305.403 308.448 301.048 311.461 298.023C336.894 332.523 351.496 378.232 322.687 415.972C320.936 418.265 318.947 420.387 317.515 422.908C307.444 430.758 303.47 434.704 291.215 440.88C290.424 441.278 289.215 441.64 289.017 442.575C286.246 443.997 282.434 444.323 279.399 445.014C255.258 450.513 227.444 447.273 204.771 437.16L204.961 436.519C204.088 434.642 198.389 430.977 196.53 429.395C179.076 414.535 168.62 393.855 168.729 370.726C168.817 352.009 175.425 339.192 182.669 322.492C189.34 307.111 192.795 290.647 192.769 273.898C203.909 284.925 211.386 292.289 224.406 301.643C231.786 280.87 240.506 252.73 234.036 230.519Z"/>
	<path fill="#E95238" transform="scale(2 2)" d="M251.064 278.768C275.168 302.358 280.812 322.243 269.769 355.443C274.415 354.587 279.075 352.958 283.482 351.279C291.802 347.781 300.208 343.315 305.969 336.169C307.233 339.659 308.501 343.131 309.358 346.749C319.429 389.288 285.179 432.081 241.982 422.908C211.864 417.566 189.992 385.854 197.703 355.789C201.552 340.785 205.341 334.99 207.137 318.36C214.243 324.849 216.828 333.93 219.317 342.895C222.43 314.463 250.244 313.069 251.064 278.768Z"/>
	<path fill="#CF3F2E" transform="scale(2 2)" d="M283.482 351.279C291.802 347.781 300.208 343.315 305.969 336.169C307.233 339.659 308.501 343.131 309.358 346.749C319.429 389.288 285.179 432.081 241.982 422.908C243.549 421.653 247.072 421.271 249.046 420.698C274.149 413.41 286.51 390.928 285.032 365.449C284.761 360.794 283.688 356.195 283.491 351.567L283.482 351.279Z"/>
	<path fill="#F29343" transform="scale(2 2)" d="M334.25 163.243C336.953 167.985 340.006 172.473 342.854 177.121C359.586 204.431 374.538 231.902 382.999 262.9C400.857 328.322 390.054 391.926 326.98 427.871C315.343 434.503 302.151 439.836 289.017 442.575C289.215 441.64 290.424 441.278 291.215 440.88C303.47 434.704 307.444 430.758 317.515 422.908C321.783 421.521 325.659 417.323 328.883 414.32C395.81 351.983 377.597 270.572 336.071 198.384C334.888 196.328 333.157 191.736 331.052 190.773C334.378 180.797 334.31 173.466 334.25 163.243Z"/>
	<path fill="#F29343" transform="scale(2 2)" d="M267.167 66.5443C268.834 65.5378 270.518 64.571 272.348 63.8871C266.166 96.92 266.264 128.336 279.968 159.484C289.954 182.179 300.979 196.042 322.956 206.803C296.208 240.054 227.453 138.368 260.934 76.8879C262.733 73.583 266.436 70.2505 267.167 66.5443Z"/>
</svg>
