<?xml version="1.0" encoding="utf-8" ?>
<svg xmlns="http://www.w3.org/2000/svg" xmlns:xlink="http://www.w3.org/1999/xlink" width="1024" height="1024">
	<path fill="#354C66" transform="scale(2 2)" d="M309.302 68.2536L322.21 68.2362C329.685 68.1888 336.578 67.7187 338.418 76.6808C351.127 85.5797 357.186 91.8914 358.778 108.617C371.97 114.656 367.088 127.803 353.8 132.676C352.583 146.416 345.772 157.512 333.037 163.752C357.7 163.928 368.142 161.946 382.174 183.199L391.421 197.35C398.385 207.976 407.552 216.993 404.054 230.744C401.291 241.609 397.368 252.346 394.034 263.058L390.283 275.274C386.129 288.805 379.123 295.365 364.416 291.442C366.07 310.052 368.148 323.355 368.152 342.338L368.146 373.402C372.114 378.106 372.326 382.679 372.326 388.559L372.306 397.618L401.155 397.611C406.437 397.611 422.216 395.26 422.737 402.096C423.239 408.675 423.405 427.684 422.693 434.076C422.322 437.398 419.954 437.854 416.968 437.859L118.268 437.816C106.082 437.827 92.8644 437.656 90.1795 421.723C89.6017 418.295 89.9033 414.742 89.922 411.279L89.9276 332.108C89.9479 322.593 93.2705 323.645 100.858 323.672L114.149 323.707L114.149 275.666C115.106 274.644 115.968 273.926 117.133 273.157L149.581 273.157L170.722 273.157L170.722 281.772C165.421 281.966 160.044 281.785 154.736 281.783L122.71 281.772L122.71 323.707C128.005 323.385 133.525 323.698 138.84 323.699L208.351 323.696C238.699 323.661 232.459 319.35 232.454 351.372L232.446 397.618C236.349 397.443 240.323 397.603 244.232 397.606L267.73 397.618C267.79 387.647 265.991 381.991 271.672 373.402C271.827 358.117 270.734 340.587 271.747 325.584C273.182 304.342 278.075 282.003 278.953 261.437C279.264 254.136 277.827 228.277 275.976 221.463C273.892 226.078 265.717 237.733 262.071 241.398C255.258 248.248 247.499 246.949 238.639 246.949L215.832 246.962C215.927 269.167 216.092 291.423 215.832 313.625C211.73 320.187 202.819 311.921 198.543 308.289C193.768 310.706 189.743 314.678 184.661 316.491C178.914 314.051 181.231 302.7 181.237 296.785L181.24 238.408C181.243 228.923 179.318 217.624 187.38 210.718C195.942 203.383 206.261 205.78 213.077 213.976C221.13 214.529 232.167 214.139 240.344 213.976C246.658 204.422 253.091 194.946 259.622 185.54C270.152 170.377 273.985 163.73 294.722 163.733L306.736 163.752C294.91 157.946 286.492 146.094 286.292 132.676C269.143 130.231 267.72 112.607 280.021 108.617C278.95 96.0705 288.547 80.0021 300.649 76.6808C302.234 71.8602 304.021 69.3831 309.302 68.2536ZM104.79 338.661C105.307 342.494 105.167 357.034 104.79 361.22C109.419 361.222 126.073 359.218 125.806 365.164C125.712 367.254 123.716 369.251 121.727 369.726C121.682 371.547 121.526 373.45 121.727 375.258C116.164 375.735 110.364 376.133 104.79 375.805C104.779 383.07 104.648 390.356 104.79 397.618C103.806 397.553 102.479 397.281 101.561 397.618C105.522 397.975 109.818 397.639 113.816 397.633L223.743 397.618C223.751 389.549 223.621 381.469 223.743 373.402L223.743 369.726L149.581 369.726C143.806 370.198 141.885 362.005 147.912 361.24C150.053 360.968 152.528 361.219 154.702 361.219L223.743 361.22L223.743 337.92C222.835 340.579 215.654 338.555 212.674 338.557L104.79 338.661ZM319.757 287.89C318.431 290.527 317.864 298.111 317.329 301.274L314.195 319.01C311.988 331.644 312.539 340.167 312.535 352.974L312.533 397.618C314.952 397.696 317.337 397.745 319.757 397.618C322.297 397.684 324.814 397.728 327.354 397.618L327.345 351.691C327.346 337.877 327.727 330.748 325.382 317.187L322.383 299.131C321.985 296.706 321.912 289.083 319.757 287.89ZM337.124 132.676L294.657 132.676C295.722 141.966 299.519 148.335 306.736 154.034C325.132 164.578 342.369 152.87 345.139 132.676C342.465 132.633 339.798 132.587 337.124 132.676ZM287.214 255.361C289.708 255.445 292.162 255.464 294.657 255.361C294.766 249.551 294.169 243.385 293.917 237.547L291.614 192.166C291.312 185.667 290.127 178.699 291.011 172.246C284.136 172.283 283.576 176.22 283.739 182.289C284.188 199.102 285.3 215.976 286.179 232.773C286.568 240.201 287.6 247.951 287.214 255.361ZM189.751 303.467C191.857 301.971 194.889 300.29 196.5 298.287C196.168 295.95 196.472 293.351 196.486 290.98L196.498 245.303C196.497 234.552 193.085 221.338 204.714 217.483C202.574 215.828 200.43 214.917 197.677 215.241C188.281 216.347 189.746 226.999 189.744 233.84L189.751 303.467ZM306.736 172.246C310.223 183.089 315.582 193.271 319.757 203.844C321.278 200.79 322.147 197.464 323.49 194.335C326.59 186.936 329.462 179.433 333.037 172.246L306.736 172.246ZM98.5048 369.726C98.5025 379.016 98.3459 388.331 98.5048 397.618C99.5228 397.619 100.543 397.637 101.561 397.618C102.479 397.281 103.806 397.553 104.79 397.618C104.648 390.356 104.779 383.07 104.79 375.805C110.364 376.133 116.164 375.735 121.727 375.258C121.526 373.45 121.682 371.547 121.727 369.726L98.5048 369.726ZM364.416 220.398C362.894 226.494 362.344 244.301 362.73 250.309C363.01 249.165 363.282 248.062 363.716 246.962C364.589 239.964 367.583 233.547 368.711 226.597C367.747 224.729 366.058 221.691 364.416 220.398Z"/>
	<path fill="#F9FDFD" transform="scale(2 2)" d="M335.743 381.443C344.945 381.859 354.503 381.666 363.716 381.443C363.694 383.258 363.556 385.165 363.716 386.969L335.743 386.969C335.791 385.122 335.837 383.289 335.743 381.443Z"/>
	<path fill="#F9FDFD" transform="scale(2 2)" d="M275.976 381.443C278.999 381.137 282.191 381.417 285.236 381.424L303.995 381.443C304.1 383.287 304.041 385.124 303.995 386.969C296.728 386.8 289.269 386.737 282.005 386.969L282.005 397.618C279.985 397.708 277.996 397.691 275.976 397.618L275.976 381.443Z"/>
	<path fill="#FCC761" transform="scale(2 2)" d="M337.124 86.2274C345.166 90.0077 349.37 99.4087 350.35 107.782L347.812 107.782L334.187 107.782C334.648 101.112 335.594 92.7578 337.124 86.2274Z"/>
	<path fill="#84D7E1" transform="scale(2 2)" d="M282.005 386.969C289.269 386.737 296.728 386.8 303.995 386.969C304.024 390.473 304.263 394.13 303.995 397.618L282.005 397.618L282.005 386.969Z"/>
	<path fill="#FCC761" transform="scale(2 2)" d="M301.478 86.2274L301.695 86.3466C303.363 93.3107 303.709 100.697 304.825 107.782L291.707 107.782C290.548 107.887 289.406 107.827 288.246 107.782C288.48 99.7868 293.049 88.5818 301.478 86.2274Z"/>
	<path fill="#84D7E1" transform="scale(2 2)" d="M335.743 381.443C335.837 383.289 335.791 385.122 335.743 386.969L363.716 386.969L363.716 397.618L335.743 397.618C335.263 393.574 335.414 385.346 335.743 381.443Z"/>
	<path fill="#FCC761" transform="scale(2 2)" d="M309.302 76.6808C316.07 76.3488 323.023 76.6685 329.81 76.6808C329.829 80.4363 329.005 84.3036 328.434 88.0103L325.846 104.69C325.956 105.687 325.856 106.775 325.846 107.782L313.579 107.782C312.405 102.507 308.967 81.9108 309.302 76.6808Z"/>
	<path fill="#FCC761" transform="scale(2 2)" d="M283.757 116.212L347.103 116.188C350.154 116.183 359.162 114.848 357.47 120.579C356.951 122.338 355.883 123.16 354.318 123.982C349.787 124.688 338.257 123.982 333.135 123.978L303.524 123.978C297.947 123.991 292.337 124.141 286.764 123.994C280.111 123.819 277.881 118.377 283.757 116.212Z"/>
	<path fill="#FEA95E" transform="scale(2 2)" d="M204.714 217.483C208.25 221.362 207.292 226.239 207.283 231.118L207.262 303.467C204.264 301.537 200.308 297.654 196.5 298.287C196.168 295.95 196.472 293.351 196.486 290.98L196.498 245.303C196.497 234.552 193.085 221.338 204.714 217.483Z"/>
	<path fill="#F9FDFD" transform="scale(2 2)" d="M98.5048 332.262L223.743 332.262L223.743 337.92C222.835 340.579 215.654 338.555 212.674 338.557L104.79 338.661C105.307 342.494 105.167 357.034 104.79 361.22C102.707 361.055 100.592 361.174 98.5048 361.22L98.5048 332.262Z"/>
	<path fill="#B9F0F6" transform="scale(2 2)" d="M275.11 179.182C274.578 188.435 276.627 197.578 275.976 206.769C272.924 212.402 260.146 231.374 256.115 235.375C251.456 240.001 244.593 238.411 238.602 238.406L217.187 238.391L216.246 238.309C215.365 237.333 215.823 224.853 215.832 222.674C225.322 222.246 234.962 222.778 244.476 222.674C247.356 219.801 249.44 215.546 251.735 212.156C258.028 202.863 267.976 186.98 275.11 179.182Z"/>
	<path fill="#84D7E1" transform="scale(2 2)" d="M366.424 177.849C371.653 180.092 382.683 199.351 386.086 204.741C389.6 210.306 398.02 219.203 396.269 226.326C394.493 233.546 381.319 276.984 378.852 280.839C375.686 284.029 369.975 285.34 366.36 282.067C358.693 275.126 378.735 236.056 377.768 226.309C377.164 220.221 368.778 211.346 365.56 205.813C365.367 196.491 366.924 187.162 366.424 177.849Z"/>
	<path fill="#FCC761" transform="scale(2 2)" d="M342.226 172.246C347.68 172.069 353.812 170.844 357.703 175.56C358.605 183.454 357.312 193.738 356.74 201.851L355.01 229.476C354.451 238.079 353.719 246.739 353.8 255.361L294.657 255.361C294.766 249.551 294.169 243.385 293.917 237.547L291.614 192.166C291.312 185.667 290.127 178.699 291.011 172.246L297.141 172.246C300.725 180.974 304.561 189.591 308.191 198.299C309.65 201.799 316.893 226.741 323.565 215.677C325.849 211.889 327.309 207.385 328.999 203.305C332.966 193.724 337.648 181.311 342.226 172.246Z"/>
	<path fill="#84D7E1" transform="scale(2 2)" d="M287.214 263.912C292.877 263.267 301.556 263.925 307.611 263.927L352.91 263.912C355.392 291.097 359.515 314.804 359.514 342.337L359.506 373.402L335.743 373.402L335.754 342.498C335.754 336.8 336.088 330.855 335.547 325.188C334.533 314.557 331.443 302.01 329.656 291.286C327.624 279.089 331.11 277.665 315.344 278.983C312.814 279.195 312.332 280.334 311.781 282.682C309.68 291.632 308.238 302.744 306.759 311.882C304.564 325.441 303.981 330.797 303.987 344.553L303.995 372.52L287.214 372.52L280.021 372.52L280.014 344.012C279.993 323.514 282.333 306.594 284.951 286.234C285.864 279.133 287.602 271.023 287.214 263.912Z"/>
	<path fill="#B9F0F6" transform="scale(2 2)" d="M287.214 263.912C289.691 264.091 292.178 263.996 294.657 263.912C294.531 270.66 293.222 277.341 292.322 284.015L289.602 305.413C287.942 318.435 287.124 327.624 287.202 340.754L287.238 359.25C287.278 363.686 287.567 368.088 287.214 372.52L280.021 372.52L280.014 344.012C279.993 323.514 282.333 306.594 284.951 286.234C285.864 279.133 287.602 271.023 287.214 263.912Z"/>
	<path fill="#D4D6D7" transform="scale(2 2)" d="M104.79 338.661L212.674 338.557C215.654 338.555 222.835 340.579 223.743 337.92L223.743 361.22L154.702 361.219C152.528 361.219 150.053 360.968 147.912 361.24C141.885 362.005 143.806 370.198 149.581 369.726L223.743 369.726L223.743 373.402C223.621 381.469 223.751 389.549 223.743 397.618L113.816 397.633C109.818 397.639 105.522 397.975 101.561 397.618C102.479 397.281 103.806 397.553 104.79 397.618C104.648 390.356 104.779 383.07 104.79 375.805C110.364 376.133 116.164 375.735 121.727 375.258C121.526 373.45 121.682 371.547 121.727 369.726C123.716 369.251 125.712 367.254 125.806 365.164C126.073 359.218 109.419 361.222 104.79 361.22C105.167 357.034 105.307 342.494 104.79 338.661ZM149.581 369.726L148.633 370.117L148.563 370.501L148.712 370.685C155.46 379.165 156.903 375.778 169.048 375.793L204.807 375.797C211.117 375.792 217.435 375.649 223.743 375.805C223.699 375.177 223.456 373.918 223.743 373.402L223.743 369.726L149.581 369.726Z"/>
	<path fill="#8B979E" transform="scale(2 2)" d="M100.096 406.346L414.224 406.346C414.228 409.853 414.66 427.639 413.996 429.046L413.313 429.097L118.625 429.095C112.457 429.11 105.103 430.308 100.847 424.661C98.7409 421.866 96.4094 406.708 100.096 406.346Z"/>
</svg>
