<?xml version="1.0" encoding="utf-8" ?>
<svg xmlns="http://www.w3.org/2000/svg" xmlns:xlink="http://www.w3.org/1999/xlink" width="1024" height="1024">
	<path fill="#4B5D68" transform="scale(2 2)" d="M445.305 381.008C449.997 381.263 455.22 380.325 459.79 381.5C467.475 383.476 466.266 391.558 460.437 394.799C454.306 395.336 438.458 397.109 440.659 386.466C441.198 383.856 443.225 382.394 445.305 381.008Z"/>
	<path fill="#4B5D68" transform="scale(2 2)" d="M174.786 170.45C178.25 173.082 181.436 176.696 184.603 179.703C179.072 185.996 172.532 191.658 166.574 197.568L157.772 206.388C155.873 208.294 153.923 210.613 151.669 212.081C148.068 208.705 144.577 205.227 141.087 201.737C137.583 198.269 133.881 195.059 130.765 191.216C134.226 188.147 137.161 184.512 141.087 182.026C143.706 186.173 148.023 189.687 151.669 192.947C158.467 188.191 167.897 176.63 174.786 170.45Z"/>
	<path fill="#92BEA5" transform="scale(2 2)" d="M337.011 124.026C342.382 108.431 358.624 108.188 366.499 122.728L393.18 144.131C397.4 147.505 402.213 150.705 406.094 154.436C402.703 157.978 401.434 161.225 401.1 166.037C394.795 163.547 387.602 159.343 381.462 156.13C373.305 151.86 362.219 146.4 353.743 142.676C347.02 152.378 338.871 161.169 331.47 170.358C325.492 177.779 317.752 188.919 310.891 195.188C303.21 191.037 295.992 191.162 287.518 191.183L273.807 191.216C274.332 185.58 272.516 180.041 276.701 175.329C281.78 169.611 288.509 164.959 294.289 159.954L318.535 139.351C324.607 134.143 330.448 128.62 337.011 124.026Z"/>
	<path fill="#2197BD" transform="scale(2 2)" d="M337.011 124.026C342.382 108.431 358.624 108.188 366.499 122.728C367.873 139.011 353.371 148.573 341.376 137.703C337.143 133.867 336.987 129.257 337.011 124.026Z"/>
	<path fill="#FEFEFE" transform="scale(2 2)" d="M351.195 120.535C359.642 120.328 361.002 131.443 353.159 133.787C343.753 134.214 342.004 123.399 351.195 120.535Z"/>
	<path fill="#2197BD" transform="scale(2 2)" d="M406.094 154.436C424.085 144.789 436.915 161.92 426.918 175.955C429.423 176.374 432.57 175.981 435.139 175.976L455.639 175.955C457.169 181.084 459.051 186.021 460.437 191.216C465.063 195.264 467.615 200.34 465.964 206.629C462.548 219.644 448.923 217.935 438.58 217.938L392.372 217.939C388.279 217.943 380.064 218.633 376.489 217.505C369.505 215.3 364.369 208.675 365.63 201.196C366.237 197.599 368.543 195.039 369.765 191.728C371.65 186.617 372.978 181.188 374.502 175.955L393.429 175.969C397.071 175.981 400.78 176.146 404.415 175.955C402.181 173.197 401.414 169.468 401.1 166.037C401.434 161.225 402.703 157.978 406.094 154.436ZM379.359 196.784C371.185 200.096 372.066 209.895 381.56 209.742C389.555 207.31 387.999 196.426 379.359 196.784ZM414.19 159.498C410.787 160.645 409.891 162.803 409.135 166.037C410.423 170.749 413.183 172.476 417.971 171.81C425.607 168.548 422.107 158.449 414.19 159.498ZM451.554 196.784C442.933 198.031 444.327 209.635 452.903 209.742C461.448 205.001 458.56 195.959 451.554 196.784Z"/>
	<path fill="#4B5D68" transform="scale(2 2)" d="M273.807 191.216L287.518 191.183C295.992 191.162 303.21 191.037 310.891 195.188C319.527 200.942 328.099 213.147 334.878 221.386C337.248 224.266 353.459 244.313 355.398 245.518C368.178 247.147 401.448 251.807 413.299 256.912C436.064 266.717 434.645 288.366 434.641 308.625L434.635 343.241C430.407 343.056 426.145 343.231 421.91 343.236L397.545 343.241C397.719 362.39 395.344 367.286 383.896 381.008C391.389 381.317 424.926 379.055 429.034 383.367C431.992 386.473 430.981 392.737 426.806 394.252C423.584 395.421 398.757 394.787 393.648 394.788L88.0378 394.82C83.8007 394.83 76.9502 395.936 73.941 392.176C70.289 387.613 73.2707 381.605 79.0073 381.029C82.9325 380.635 87.2023 381.013 91.1682 381.014L121.609 381.017C126.327 381.019 131.287 381.417 135.963 381.008C126.364 370.974 122.238 359.787 122.545 345.967L122.619 343.241C117.807 343.248 100.967 344.857 97.7635 341.676C95.4366 339.366 80.4634 313.238 79.832 310.351C79.0557 306.799 79.7169 300.244 79.7112 296.35L79.6681 256.75C79.671 251.554 80.9153 237.872 78.9332 233.509C72.4661 219.272 50.3578 235.757 46.093 221.115C46.6842 218.833 47.3447 216.483 49.4756 215.154C53.2306 212.812 71.3314 213.612 75.7551 214.778C91.7032 218.98 93.2286 231.881 93.4905 245.518L214.126 245.518L223.215 245.518C223.924 231.842 219.874 207.874 229.08 197.895C238.329 187.871 260.357 191.717 273.807 191.216ZM295.761 343.241C294.947 355.946 292.981 359.317 279.731 359.283L246.997 359.259C232.706 359.255 225.22 359.925 225.409 343.241C220.98 343.234 216.52 343.11 212.095 343.241L211.726 343.538C211.569 345.732 212.184 347.933 212.118 350.121C211.754 362.213 206.84 372.329 198.663 381.008L313.184 380.96C315.615 380.932 318.312 381.355 320.695 380.946L320.746 380.664L320.304 380.18C310.968 367.272 307.612 360.259 308.246 343.241L295.761 343.241Z"/>
	<path fill="#3D6E88" transform="scale(2 2)" d="M238.989 326.17L282.021 326.17C282.001 332.66 282.377 339.266 282.021 345.739C277.593 346.066 273.023 345.753 268.576 345.744L238.989 345.739L238.989 326.17Z"/>
	<path fill="#B3BABB" transform="scale(2 2)" d="M98.8365 259.539L210.119 259.539L210.119 272.391C208.207 272.476 206.288 272.418 204.375 272.391L93.4905 272.391L93.4905 259.539C95.2817 259.444 97.0445 259.474 98.8365 259.539Z"/>
	<path fill="#B3BABB" transform="scale(2 2)" d="M353.159 318.362L353.591 318.371C380.995 318.979 394.303 353.305 373.658 372.24C368.148 377.293 360.677 380.547 353.159 380.18L352.397 380.245C345.132 380.821 337.867 377.638 332.432 372.936C311.392 354.735 323.313 319.891 353.159 318.362Z"/>
	<path fill="#4B5D68" transform="scale(2 2)" d="M351.195 337.294C367.012 335.44 370.872 358.021 355.398 361.713C338.095 362.966 334.241 341.678 351.195 337.294Z"/>
	<path fill="#B3BABB" transform="scale(2 2)" d="M164.969 318.362C202.429 314.011 212.593 374.93 169.809 380.18C129.123 382.405 123.468 322.234 164.969 318.362Z"/>
	<path fill="#4B5D68" transform="scale(2 2)" d="M164.969 337.294C177.998 332.405 187.631 355.52 168.976 361.713C152.381 363.427 148.962 337.749 164.969 337.294Z"/>
	<path fill="#EFAB26" transform="scale(2 2)" d="M93.4905 286.436L223.215 286.436C223.311 292.861 222.377 324.653 224.223 328.158L224.702 328.411C225.085 328.064 225.185 327.877 225.409 327.426C225.418 330.987 223.01 329.643 219.41 329.627L207.986 329.594C202.106 319.6 196.402 312.647 185.427 307.903C164.027 298.65 136.203 307.605 126.661 329.594L106.375 329.594C98.7584 316.639 93.4089 313.192 93.4665 298.505L93.4905 286.436Z"/>
	<path fill="#FAC252" transform="scale(2 2)" d="M273.807 191.216L287.518 191.183C295.992 191.162 303.21 191.037 310.891 195.188C319.527 200.942 328.099 213.147 334.878 221.386C337.248 224.266 353.459 244.313 355.398 245.518C360.139 252.226 361.516 260.249 369.603 261.665C383.114 264.03 410.632 266.74 417.971 278.783C414.086 278.792 402.364 277.866 399.744 280.293C397.497 282.374 397.969 295.807 399.619 297.318C402.686 300.125 416.384 298.607 421.015 298.898L421.015 329.594C411.789 329.584 402.431 329.231 393.22 329.594C376.269 295.532 329.697 296.804 312.495 329.594C306.983 329.61 301.25 329.961 295.761 329.594C295.965 308.425 284.765 312.799 267.325 312.807C257.265 312.812 247.185 312.652 237.128 312.786C228.274 312.903 225.627 319.777 225.409 327.426C225.185 327.877 225.085 328.064 224.702 328.411L224.223 328.158C222.377 324.653 223.311 292.861 223.215 286.436L223.215 245.518L214.126 245.518L223.215 245.518C223.924 231.842 219.874 207.874 229.08 197.895C238.329 187.871 260.357 191.717 273.807 191.216Z"/>
	<path fill="#4B5D68" transform="scale(2 2)" d="M244.794 275.955L264.208 275.943C267.602 275.939 273.698 274.883 276.652 276.986C279.615 279.096 279.443 283.758 277.434 286.436C273.898 289.301 263.863 288.019 259.516 288.016C245.205 288.008 245.388 289.922 244.794 275.955Z"/>
	<path fill="#4B5D68" transform="scale(2 2)" d="M244.794 211.317L301.692 211.317C309.543 222.544 321.251 235.804 330.097 246.501C331.934 248.723 340.429 256.474 338.514 259.539C336.855 260.098 316.722 259.536 313.795 259.535L252.689 259.55C250.069 259.576 247.398 259.874 244.794 259.539L244.794 211.317Z"/>
</svg>
